<svg width="1920" height="862" fill="none" xmlns="http://www.w3.org/2000/svg"><path fill="url(#paint0_linear)" d="M-1-4h1920v648H-1z"/><path d="M267 438.441h-566v14.085h566v-14.085z" fill="#95AEC7"/><path d="M267 430.526h-566v14.09h566v-14.09z" fill="#A6C1DC"/><path d="M246.115 150.156H-278.11v272.647h524.225V150.156z" fill="#EDF0F7"/><path d="M236.7 156.278h-505.399v261.638H236.7V156.278z" fill="#D8E6F4"/><path d="M-268.699 417.911H236.7V303.607c-4.46 1.321-6.461 6.089-.842 11.923-14.88-5.613-26.884 8.117-17.416 21.347-27.731-1.653-28.351 13.883-29.251 25.105-13.077-6.012-28.183-4.811-26.379 4.411-8.983-7.987-25.942-5.483-33.37 3.211-4.96-20.449-39.768-30.891-55.395-20.804 3.113-10.337-23.31-14.225-37.266-4.051-5.798-18.517-25.254-13.629-28.862 1.605-7.861-6.988-22.097-3.206-19.841 9.222-13.076-7.617-31.195 1.908-23.218 17.642-4.912-3.062-16.762-1.221-19.34 9.217-4.047-10.717-24.249-9.977-25.962.586-8.626-17.243-39.003-9.712-44.776 11.76-6.87-11.942-26.711-7.127-30.599 3.393-8.347-12.298-30.507-16.979-43.453-7.714 1.804-3.205-6.313-13.23-13.977-8.621 0 0 .453-19.242-18.489-20.045 15.781-16.036-10.372-46.706-28.861-45.505 15.251-8.799 6.004-26.292-8.097-17.892v119.514h-.005z" fill="#A6C1DC"/><path opacity=".3" d="M121.874 417.656h87.292L47.346 156.1h-87.293l161.821 261.556zm-46.716 0h16.227L-70.434 156.1h-16.228l161.82 261.556z" fill="#fff"/><path d="M-286.212 143v287.752h540.424V143h-540.424zM241.29 420.688h-514.575v-267.63H241.29v267.63z" fill="#fff"/><path d="M115.47 155.605h-12.071v265.694h12.071V155.605z" fill="#EDF0F7"/><path d="M118.357 146.974h-12.066v281.394h12.066V146.974z" fill="#fff"/><path d="M1512.18 675.814c-12.31.585-35.8 9.218-16.37 14.847 19.43 5.63 73.38 6.91 82.08-3.072 8.69-9.983-11.77-14.336-65.71-11.775z" fill="#DBE7F3"/><path d="M1572.67 608.72c2.24-1.407 1.27-6.902-1.42-8.272-2.69-1.375-5.91-1.486-7.97-2.864-2.06-1.375-4.61-3.912-8.35-2.435-3.72 1.477-7.31 3.277-9.62 1.694-2.31-1.579-5.51-4.664-9.76-5.253-2.61-.356-7.57 5.036-10.52 4.091-2.95-.961-7.02-3.613-9.32-3.085-2.33.524-2.74 5.409-5.3 4.889-2.57-.531-6.17-1.804-10.78-.323-4.62 1.473-7.97 4.124-10.15 3.805-2.17-.319-4.7 1.236-3.81 3.236.91 2.013-4.08 5.765 19.78 8.187 12 1.338 49.87 3.093 67.22-3.67z" fill="#809DBB"/><path d="M1565.53 599.478c4.65.986 3.01 3.175-.36 3.764-3.38.609-10.96-3.38-16.17-1.804-5.2 1.579-11.78 7.065-19.25 4.214-7.49-2.856-15.99-.234-22.47-.532-6.48-.291-15.49-2.218-13.61-3.232 1.83-.978 2.48-3.155 7.77-3.38 5.29-.225 6.93 2.782 9.48 1.35 2.57-1.44 1.56-3.465 5.67-3.314 4.12.152 5.03 3.912 11.06 2.787 6.02-1.134 8.22-6.256 10.77-4.894 2.55 1.355 5.7 5.27 10.4 3.76 10.13-3.232 7.32-.679 16.71 1.281z" fill="#65819D"/><path d="M1555.74 597.518c3.27-.11 12.67 3.429 8.67 3.515-4 .081-9.09-2.341-11.93-1.42-2.83.92-1.42-1.923 3.26-2.095zm-18.86.593c-1.67.52-4 3.003-7.92 3.257-3.92.25-2.17 2.672 1.92 2.835 4.09.168 10.35-7.425 6-6.092z" fill="#6A8BAC"/><path d="M1496.85 605.958c-3.51-1.755-7.5-3.841-8.42-2.254-.92 1.588 7.25 6.006 16.26 6.1 9.01.082 9.51-1.919 3.92-2.34-5.58-.413-6.25 1.256-11.76-1.506zm70.57-1.755c3.09-1.71 6.25-1.084 3.08 1.42-3.17 2.512-11.18 6.436-20.02 5.433-8.84-1.002-6.17-4.68 2.08-4.922 8.26-.257 8.68 1.494 14.86-1.931z" fill="#65819D"/><path d="M1576.31 612.116s-6.35 41.997-11.41 67.981c-34.24 13.375-65.9 0-65.9 0l-12.32-66.93 89.63-1.051z" fill="#A6C1DC"/><path d="M1574.21 609.412l-1.5 8.976s-80.81-5.2-70.53 32.129c7.21 26.156 61.28 22.977 61.28 22.977l-.65 3.895s-30.43 11.971-61.11 0c-13.06-10.887-12.31-66.926-12.31-66.926l84.82-1.051z" fill="#95AEC7"/><path d="M1551 626.595c3.59-2.467 14.01-7.287 15.91-.785 1.91 6.501.69 33.831-12.24 34.293-12.92.442-20.13-22.183-3.67-33.508z" fill="#B6D1ED"/><path d="M1562.14 631.869c.75-.528 2.95-1.543 3.35-.168.4 1.367.15 7.148-2.58 7.242-2.74.102-4.26-4.689-.77-7.074z" fill="#C7E0FA"/><path d="M1477.71 611.236c0 1.899 1.58 3.016 3.43 3.433 55.13 12.409 102.44 0 102.44 0 1.89 0 3.43-1.534 3.43-3.433v-5.842a3.432 3.432 0 00-3.43-3.429s-50.98 8.899-102.44 0a3.435 3.435 0 00-3.43 3.429v5.842z" fill="#B9D1EA"/><path d="M1506.97 529.017c13.19-6.427 19.95-39.371 7.28-51.006-10.95-10.053-22.75 9.937-21.1 23.917 1.66 13.98 5.81 24.209 13.82 27.089z" fill="#95AEC7"/><path d="M1535.6 453.888c14.63 1.06 36.97-24.057 31.83-40.484-4.44-14.188-24.66-2.819-30.22 10.11-5.57 12.929-7.1 23.865-1.61 30.374z" fill="#809DBB"/><path d="M1523.37 460.577c4.55-13.967-14.43-41.715-31.59-40.672-14.82.901-8.66 23.284 2.53 31.806 11.19 8.519 21.43 12.634 29.06 8.866z" fill="#B6D1ED"/><path d="M1495.53 511.715c9.1-11.525.9-44.137-15.56-49.108-14.21-4.296-16.18 18.84-8.63 30.713 7.55 11.873 15.73 19.283 24.19 18.395z" fill="#65809D"/><path d="M1530.04 430.87c11.49-9.132 10.97-42.754-3.91-51.375-12.85-7.442-20.06 14.627-15.43 27.916 4.63 13.296 10.89 22.383 19.34 23.459z" fill="#809DBB"/><path d="M1482.16 483.46c4.31 18.988 18.24 42.775 44.97 70.428-1.58-42.509 2.23-124.11 2.61-126.262.86-4.791 1.9-6.031 1.82-.36-.15 10.907-.49 43.396-.53 75.702 4.55-.905 18.32-6.784 42.01-42.922 1.38-3.102 3.79-2.758 2.07.687-1.68 3.359-22.64 39.101-44.08 46.985 0 24.494.19 48.265.81 61.77 2.22 48.552 2.48 23.031 2.55 25.109-.54 3.78-4.94.634-5.74 0-.01-16.402-2.09-18.333-1.9-34.793-38.97-40.455-45.37-69.491-46.42-76.913-.38-2.671 1.05-2.565 1.83.569z" fill="#A6C1DC"/><path d="M1513.9 596.426l.35-.058c1.34-.216 2.61-.417 3.04-1.043l.12-.168c.73-1.067 1.96-2.851 4.61-3.334 2.23-.401 4.2-1.137 4.85-2.573.4-1.342 2.7-2.042 2.84-1.948.55.368 1.29.626 3.35.213.15-.082.44-.262.62-.291 2.57-.405 5.03 3.609 5.86 4.484.89.958 2.01 1.522 3.42 1.723.89.127 1.43.712 1.82 1.141.44.475.62.643 1.02.643.11 0 .24-.017.38-.045.4-.082.73-.123 1.02-.123 1.01 0 1.48.491 1.89.925.27.294.59.63 1.24.994.63.356 1.99.671 2.47 1.775.19.442-2.35.618-4.43.618-.95 0-1.93-.147-2.76-.417-.46-.147-1.02-.225-1.68-.225-1.73 0-3.68.56-4.41 1.08-.6.425-1.63.63-3.15.63-1.88 0-4.41-.331-6.16-.806-1.69-.454-4.13-.159-7.09.851-1.22.413-2.82.671-4.17.671-1.44 0-2.53-.274-3.23-.822-.7-.544-2.35-.696-3.34-.786-.51-.045-.9-.082-1.19-.155-.69-.172-1.81-.258-1.8-.651.02-.303.95-1.722 4.51-2.303z" fill="#65809D"/><path d="M1534.9 588.259c.83 0 .44 1.363 3.23 3.351 1.94 1.375-.06 2.312-2.35.475-2.39-1.915-2.39-3.826-.88-3.826z" fill="#809DBB"/><path d="M1540.89 593.701c1.27-.037 3.12.847 2.13 1.141-.99.295-4.48-1.063-2.13-1.141z" fill="#6A8AAC"/><path d="M1537.02 597.064c1.17.491 2.49 2.07 1.46 1.927-1.02-.147-3.63-2.843-1.46-1.927zm10.78-.487c1.41.36 3.79 1.727 1.4 1.399-2.39-.335-3.27-1.882-1.4-1.399zm-5.33-.667c1.57.238 4.04 1.068 2.57 1.363-1.47.294-4.96.184-6.35-1.768-1.31-1.82 2.09.147 3.78.405zm-9.54 2.005c1.3.196 3.36.884 2.14 1.129-1.23.246-4.13.152-5.29-1.469-1.08-1.509 1.74.127 3.15.34zm1.09-5.834c.98.777 4.19 2.577 3.13 3.056-1.07.479-4.15-1.092-4.56-2.16-.4-1.064.7-1.485 1.43-.896zm-3.35.896c-.83 0-1.5 1.031-2.6 1.718-2.02 1.26-.75 3.036 1.54 1.199 2.39-1.907 2.58-2.917 1.06-2.917z" fill="#809DBB"/><path d="M1523.92 592.261c-1.26-.041-3.12.843-2.13 1.141 1 .295 4.49-1.068 2.13-1.141zm.48 5.253c-1.17.495-2.49 2.074-1.47 1.927 1.03-.147 3.64-2.848 1.47-1.927z" fill="#6A8AAC"/><path d="M1515.95 596.577c-1.41.36-3.78 1.727-1.4 1.399 2.39-.335 3.28-1.882 1.4-1.399zm5.88-1.076c-1.57.237-4.04 1.068-2.57 1.358 1.47.295 4.96.185 6.35-1.767 1.31-1.817-2.09.151-3.78.409zm6.03-6.955c-.97.949-1.36 3.617-.3 4.202 1.07.585 3.71-1.481 4.12-2.782.4-1.301-3.09-2.14-3.82-1.42z" fill="#809DBB"/><path d="M1524.99 554.948c1.41-14.623-23.13-37.583-39.66-32.833-14.27 4.1-3.4 24.613 9.37 30.497 12.78 5.883 23.66 7.671 30.29 2.336z" fill="#7EA0C4"/><path d="M1528.85 494.654c13.19-6.427 19.95-39.371 7.28-51.007-10.94-10.048-22.75 9.938-21.09 23.918 1.65 13.98 5.8 24.209 13.81 27.089zm1.43 70.588c14.57 1.763 38.09-22.245 33.74-38.901-3.75-14.385-24.49-4.001-30.67 8.641-6.18 12.642-8.23 23.493-3.07 30.26z" fill="#65809D"/><path d="M1563.71 480.633c14.64-.925 33.4-28.823 26.1-44.407-6.31-13.461-24.81.536-28.59 14.094-3.78 13.559-3.82 24.602 2.49 30.313z" fill="#6E8EAF"/><path d="M1554.17 486.676c13.68-5.298 23.17-37.558 11.52-50.217-10.06-10.932-23.49 7.994-23.02 22.06.48 14.07 3.76 24.614 11.5 28.157z" fill="#B6D1ED"/><path d="M1534.26 504.35c6.19 13.322 38.97 20.649 50.81 8.167 10.22-10.785-9.54-22.944-23.52-21.529-13.99 1.416-24.27 5.397-27.29 13.362z" fill="#95AEC7"/><path d="M1528.22 530.441c8.3-12.11-2.07-44.096-18.83-47.95-14.47-3.331-14.87 19.887-6.55 31.224 8.34 11.342 16.99 18.182 25.38 16.726z" fill="#B6D1ED"/><path d="M1744.99 670.976c-42.93.794-124.9 12.501-57.1 20.136 67.81 7.641 256.05 9.378 286.38-4.167 30.33-13.538-41.04-19.442-229.28-15.969z" fill="#DBE7F3"/><path d="M1715.01 687.379h216.58V315.567h-216.58v371.812z" fill="#8FAAC5"/><path d="M1730.64 687.377h185.32V328.69h-185.32v358.687z" fill="#657A9D"/><path d="M1734.6 670.37h177.5V434.035h-177.5V670.37z" fill="#A6C1DC"/><path d="M1821.99 671.157h3.46V432.325h-3.46v238.832z" fill="#657A9D"/><path d="M1730.64 430.927h185.32v-13.49h-185.32v13.49z" fill="#A6C1DC"/><path d="M1730.64 687.1h185.32v-13.485h-185.32V687.1z" fill="#8FAAC5"/><path d="M1896.6 340.781h-14.72v74.076h14.72v-74.076zm-76.73-.97l-22.51 70.573 14.04 4.468 22.5-70.564-14.03-4.477z" fill="#809DBB"/><path d="M1866.8 339.385l-11.72 73.144 14.55 2.323 11.72-73.14-14.55-2.327z" fill="#6E8EAF"/><path d="M1833.89 339.664l-21.19 70.977 14.12 4.211 21.19-70.976-14.12-4.212z" fill="#B6D1ED"/><path d="M1849.27 339.385l-11.72 73.144 14.55 2.323 11.72-73.14-14.55-2.327z" fill="#7EA0C3"/><path d="M1774.26 339.385l-11.72 73.144 14.55 2.323 11.71-73.14-14.54-2.327z" fill="#6E8EAF"/><path d="M1792.25 339.385l-11.71 73.144 14.54 2.323 11.72-73.14-14.55-2.327z" fill="#95AEC7"/><path d="M1815.93 542.341a5.538 5.538 0 01-5.54 5.541 5.542 5.542 0 010-11.083c3.06 0 5.54 2.483 5.54 5.542zm27.15 0a5.53 5.53 0 01-5.53 5.541 5.532 5.532 0 01-5.54-5.541 5.536 5.536 0 015.54-5.542c3.06 0 5.53 2.483 5.53 5.542z" fill="#657A9D"/><path d="M1743.92 277.411s3.76.067 8.19 3.179c10.25 7.225 13.34 5.927 21.72-.288 7.52 5.346-32.8 19.797-36.7 10.257-.58-6.937-3.33-11.849 6.79-13.148z" fill="#65809D"/><path d="M1741.6 278.618s3.96-.514 8.39 2.598c7.25 5.111 10.82 6.241 15.26 4.273-3.56.758-7.27-.545-13.38-4.708-5.45-3.706-9.73-3.036-9.73-3.036-1.95.248-1.79.78-2.89 1.29.7-.164 1.48-.306 2.35-.417z" fill="#536B86"/><path d="M1741.75 278.135s3.96-.515 8.38 2.602c7.26 5.107 10.83 6.246 15.26 4.273-3.56.758-7.27-.545-13.38-4.708-5.44-3.706-9.73-3.036-9.73-3.036-1.94.252-1.78.78-2.88 1.285.69-.164 1.47-.306 2.35-.416z" fill="#C8D9EA"/><path d="M1773.83 280.298c-.57.426-1.12.825-1.64 1.197 2.15 2.567-4.5 6.711-12.77 9.624 9.77-3.077 18.21-8.112 14.41-10.821z" fill="#FDC300"/><path d="M1738.23 292.05c3.34 2.793 12.07 1.8 20.16-.616-1.26-.741-2.65-1.654-4.21-2.753-4.43-3.117-8.39-2.602-8.39-2.602-6.11.789-7.52 2.894-7.56 5.971z" fill="#536B86"/><path d="M1753.65 218.848s-.44 3.227 1.99 5.674c-2.67-.204-2.74.142-2.23.966.5.825.45 1.313-1 1.246-1.46-.066-3.93-.191-3.75.758.17.949.02 1.401-1.44 1.188-1.47-.213-3.13-.935-2.96-.182.16.763.28 1.618-1.06 1.157-1.35-.461-2.34-1.294-3.44-.571-.07-.284.24-1.228 1.44-1.282 1.2-.053 2.22 0 1.78-.638-.44-.643-1.16-1.64.22-1.857 1.38-.218 3.4-.293 2.7-1.104-.69-.811-1.52-1.946-.21-2.443 1.31-.501 4.22.164 3.86-.625-.36-.789-.67-1.538.45-1.968 1.13-.439 2.86-.492 3.65-.319z" fill="#607A97"/><path d="M1753.18 225.014c-.77-.093-2.17-2.505-3.14-3.781-.71-.931-.41-1.654-.12-2.031-1.01.439-.72 1.166-.37 1.929.36.789-2.55.124-3.86.625-.06.022-.12.049-.17.075.21-.035.46-.075.76-.12 1.43-.203 2.88.603 3.5 1.109 1.06.846 2.61 2.008 2.37 2.965-.1.422-1.19.794-1.72.896.16.004 1.82.04 1.97.049 1.45.066 1.51-.422 1-1.246-.1-.177-.19-.333-.22-.47zm-4.52 2.478a.443.443 0 01.01-.23c-.35-.142-.78-.9-1.34-1.601-.88-1.099-1.37-1.879-1.98-2.491-.12-.129-.2-.155-.23-.12.16.395.49.803.79 1.157.58.674-.73.843-1.98 1.002.95-.106 2.14-.044 3 1.233.74 1.09-.16 1.852-.5 2.087.26.058.52.111.79.151 1.46.209 1.61-.239 1.44-1.188zm-6.26-1.627c-.05.399.31.913.58 1.295.35.514-.24.576-1.1.611v.005c1.11.102 1.62.643 1.95 1.321.26.523-.76.403-1.23.328.19.08.39.16.6.23 1.34.461 1.22-.394 1.06-1.157-.03-.115-.01-.199.04-.252-.84-.701-1.61-1.906-1.9-2.381z" fill="#536B86"/><path d="M1747.51 223.884c.22.093.59.221.68.377.19.469.55.598.96.527.42-.066.51-.461.39-.74-.12-.28.09-.514.12-.67.17-.997-.58-1.405-1.22-1.44-.59-.031-1.1.142-1.35.744-.26.603.21 1.109.42 1.202zm1.09-.727c-.08-.253.03-.515.23-.581.22-.071.45.08.54.332.08.253-.03.515-.23.586-.22.066-.45-.085-.54-.337zm.28.563c.26-.009.17.47.17.47-.03.146-.21.035-.35-.147-.14-.186-.07-.319.18-.323zm-1.24-.922c.2-.102.45.009.57.243.13.235.06.51-.13.612-.2.102-.46-.009-.58-.244-.12-.235-.06-.509.14-.611z" fill="#37495C"/><path d="M1750.85 223.312s-.04-.479-.34-.404c-.3.076-.27.572-.15.834-.39.323-1.69 2.079-1.69 2.079s-.59-.093-.63.199c-.04.293.45.328.45.328s.15.377.39.306c.22-.062.19-.434.04-.647.23-.213 1.76-2.07 1.76-2.07s.59.111.66-.186c.07-.293-.32-.519-.49-.439z" fill="#37495C"/><path d="M1750.37 225.4s.46-.457.61-.249c.15.213 0 .515-.15.528.15.293-.05.567-.28.505-.23-.062-.32-.39-.32-.39l-3.19-1.064s-.35.417-.6.249c-.2-.133-.12-.408.15-.51-.21-.288-.03-.466.15-.466s.4.368.4.368l3.23 1.029z" fill="#37495C"/><path d="M1758.91 233.415a.362.362 0 01-.39-.289c-1.02-4.916-5.63-15.918-5.67-16.029a.368.368 0 01.19-.479c.19-.075.4.009.48.195.19.452 4.68 11.176 5.71 16.163.04.199-.08.39-.28.43a.144.144 0 01-.04.009z" fill="#A6C1DC"/><path d="M1753.85 215.944a1.04 1.04 0 01-2.07.182 1.04 1.04 0 01.95-1.122c.56-.053 1.07.368 1.12.94z" fill="#95AEC7"/><path d="M1753.65 215.776a.76.76 0 01-.69.824.77.77 0 01-.83-.691.77.77 0 01.7-.825c.42-.035.78.271.82.692z" fill="#A6C1DC"/><path d="M1749.19 230.87s3.63 7.447 4.34 8.033c3.22-.071 13.71-1.964 13.71-1.964l.39-8.095s-2.26-2.327-10.07-1.467c-7.74.855-8.37 3.493-8.37 3.493z" fill="#95AEC7"/><path d="M1751.15 233.375c.62.647 2.68 2.677 12.18 1.768 4.54.173 3.9 1.791 3.9 1.791l.39-8.094s-2.17-1.858-9.98-.993c-7.74.855-7.46 4.504-6.49 5.528z" fill="#A6C1DC"/><path d="M1767.21 236.668c.3 1.073-2.64 2.412-6.45 2.931-3.81.518-7.14.071-7.43-.998-.3-1.073 2.55-2.358 6.36-2.877 3.81-.527 7.23-.128 7.52.944z" fill="#58738F"/><path d="M1766.37 236.926c.23.837-2.29 1.884-5.64 2.336-3.34.452-6.23.146-6.46-.692-.23-.838 2.29-1.884 5.63-2.34 3.34-.453 6.24-.142 6.47.696z" fill="#65809D"/><path d="M1755.37 236.806l-4.51-7.567.18-.067 4.52 7.567-.19.067zm3.15-.851l-3.06-8.215.2-.044 3.06 8.214-.2.045zm3.14-.395l-.86-8.307.2-.009.86 8.307-.2.009zm3.43.115l-.21-.013 1-7.625.21.014-1 7.624zm-.51 63.051c-.03 0-.07 0-.1-.005a.792.792 0 01-.69-.895c2.09-16.371.16-31.519-1.82-44.826-.84-5.595-1.68-10.382-2.49-14.456-.15-.408-.2-1.051.47-1.215.79-.142 1.11.656 1.07 1.028.81 4.074 1.69 8.818 2.52 14.39 2 13.414 3.94 28.726 1.83 45.283a.792.792 0 01-.79.696z" fill="#58738F"/><path d="M1735.04 247.995s7.54 3.285 9.53-3.267c4.77 2.677 9.42 1.471 9.96-2.199 3.41 3.795 9.77 2.54 10.09-1.419 3.7 3.489 8.92 3.463 9.49.124 1.92 3.467 7.91 3.8 8.52.829 3.84 3.751 8.22 23.442.08 35.495-.29-4.326-4.8-3.839-6.73-.505-1.15-3.795-6.12-3.063-7.97.341-1.56-4.171-6.06-2.278-7.25 1.1-1.41-3.192-5.78-1.53-7.79 2.11-1.03-3.405-4.57-2.035-6.81 2.066-.18-13.206-1.98-25.703-11.12-34.675z" fill="#A4C2E1"/><path d="M1747.43 278.764c3.51-11.087-1.89-24.213-8.17-27.569 1.76 0 4.82-1.604 5.4-3.94-1.96 1.489-3.67 1.671-4.82 1.524-2.43.244-4.79-.789-4.79-.789 9.14 8.973 10.94 21.469 11.11 34.675 1.99-3.648 5-5.129 6.38-3.028h.01c-.74-1.897-3.07-3.063-5.12-.873zm2.48-30.778s4.38-.146 5.25-3.21c3.06 2.186 8.46 2.332 10.21-1.458 2.48 2.478 7.74 2.771 9.05 0 3.06 1.897 5.69 2.624 6.85 1.897-1.02.874-4.52 1.166-6.56.293-1.76 1.312-7.59 1.751-9.19-.585-1.46 2.043-5.55 4.083-9.78 1.312-1.16 1.897-3.49 2.044-5.83 1.751z" fill="#82A6CB"/><path d="M1755.17 249.006s-2.63 1.019-5.55.877c-2.91-.146-4.52 1.02-1.16 5.107 3.35 4.083 5.83 14.15 4.23 21.735.14 1.893 1.16.873 2.48-1.02 1.31-1.897 4.08-1.019 5.54 1.02 2.63-4.814 5.25-1.605 7.29-2.624 2.05-1.024 5.98-2.629 7-.732 1.02 1.898 2.77.585 3.94-.439 1.17-1.019 3.36-.58 4.52 1.898 2.63-5.839 5.4-15.901 0-29.466-.29-.727.29 5.106-3.21 7.146.44-1.751-2.33-6.419-5.69-5.395-3.35 1.019-6.41 1.166-8.17.585-1.75-.585-2.47.146-5.54 1.166-3.06 1.019-2.91-.732-5.68.142z" fill="#B6D1ED"/><path d="M1739.51 250.056c.81 0 1.83-.261 3.03-1.113a.108.108 0 00.02-.141.095.095 0 00-.14-.023c-2.96 2.11-4.76.515-4.84.444-.04-.04-.1-.036-.14.009-.04.044-.04.106 0 .141.02.014.77.683 2.07.683zm41.33-.798c.03 0 .06-.013.08-.044 2.33-3.21 1.79-5.253 1.77-5.337-.02-.054-.08-.089-.13-.071-.06.017-.09.075-.07.124 0 .022.53 2.039-1.74 5.164-.03.045-.02.111.02.142.03.013.04.022.07.022zm-34.13 26.252c.05 0 .09-.04.1-.093 1.16-12.009-4.35-19.11-4.4-19.181a.097.097 0 00-.14-.018.097.097 0 00-.02.146c.05.071 5.5 7.111 4.35 19.035 0 .058.04.107.09.111h.02z" fill="#5F86AE"/><path d="M1745.89 283.441a.36.36 0 01-.38-.35.363.363 0 01.31-.382c.07-.022.35-.133.64-.252 12.35-4.974 24.87-6.761 36.2-5.169.21.031.34.217.32.417a.374.374 0 01-.42.314c-11.2-1.573-23.59.195-35.83 5.12-.64.266-.73.297-.84.302zm-11.44-35.207a.422.422 0 01-.41-.257.439.439 0 01.22-.563c.06-.022 6.01-2.598 14.92-4.632 8.22-1.88 20.72-3.675 33.59-1.565a.427.427 0 01-.14.842c-12.73-2.088-25.12-.306-33.26 1.556-8.83 2.017-14.71 4.561-14.77 4.584a.373.373 0 01-.15.035z" fill="#A6C1DC"/><path d="M1738.23 278.01c.05 3.325-1.04 8.977 7.97 11.194 9.01 2.216 18.26-1.162 22.42-5.701s14.57-12.776 20.57-12.036c6.01.741 14.18 5.834 16.18 14.465 2.67 11.517-5 23.699-13.75 27.241-7 2.837-32.26 3.772-44.61-.842-15.75-5.887-16.18-25.69-8.78-34.321z" fill="#A6C1DC"/><path d="M1794.78 310.916c-7.01 2.833-32.27 3.768-44.61-.842-15.72-5.882-19-15.396 9.6-18.867-.08-.434-.19-1.29-.27-2.402-4.02 1.197-8.68 1.529-13.29.394-9.02-2.216-7.04-7.288-7.1-10.612-7.4 8.635-6.76 28.047 8.99 33.934 12.34 4.615 36.52 3.489 43.52.652 1.84-.745 3.64-1.88 5.3-3.312-.7.404-1.42.763-2.14 1.055z" fill="#95AEC7"/><path d="M1787.57 272.66c.01.953.74 2.7 1.4 4.371 1.38 3.493 6.02 21.934-1.26 31.86 1.85 2.11 4.71 1.995 6.32.093 1.62-1.902 3.35-12.674 2.43-20.8-.92-8.13-3.7-12.988-3.58-14.465.11-1.476 1.02-3.644-1.07-4.326-2.45-.803-4.27 1.746-4.24 3.267z" fill="#65809D"/><path d="M1801.81 280.085c.04.058.11.089.18.089h.01c.12 0 .22-.102.22-.226a.238.238 0 00-.05-.142 17.928 17.928 0 00-2.68-3.48c-3.19-2.802-7.06-4.464-10.29-4.863-6.01-.74-16.41 7.496-20.57 12.036-4.16 4.539-13.41 7.917-22.42 5.7-8.61-2.119-8-7.363-7.97-10.732-.27.124-.51.271-.72.439-.3.417-.6.856-.87 1.312-.45 1.175-.48 2.673-.06 4.114.76 2.615 2.86 4.801 5.9 6.166 2.67 1.202 5.87 1.835 9.26 1.835 6.5 0 12.91-2.225 17.15-5.944 4.37-3.835 14.6-12.811 21.89-12.811 1.11 0 2.12.212 3.01.625.01.004.02.004.03.008 2.08.723 6.34 3.702 7.98 5.874z" fill="#65809D"/><path d="M1744.44 277.377s-5.82-.688-7.21 1.418c-1.56 2.376-.96 7.926 5.34 10.755 8.04 3.608 19.67 1.626 26.17-4.074 5.84-5.12 17.96-15.551 25.15-12.222 2.08.709 6.37 3.648 8.1 5.949-2.16-3.724-7.45-8.791-13.86-8.556-6.42.24-12.27 4.314-20.19 11.96-6.16 5.941-17.08 7.683-23.67 4.992-6.58-2.695-5.29-8.157-4.16-8.87 1.13-.71 3.13-.794 3.13-.794l1.2-.558z" fill="#B6D1ED"/><path d="M1740.11 278.724c-.51.324-1.05 1.605-.9 3.165-.33-1.768.27-3.284.82-3.639 1.13-.714 3.13-.789 3.13-.789l.33-.155c.57.035.95.075.95.075l-1.22.554c0-.004-1.99.076-3.11.789z" fill="#DBECFD"/><path d="M1742.5 289.071c8.04 3.608 19.67 1.627 26.17-4.074 5.84-5.12 17.95-15.551 25.15-12.222 1.73.594 5.02 2.749 7.06 4.779.43.563.8 1.117 1.11 1.644-1.74-2.296-6.02-5.235-8.11-5.949-7.19-3.324-19.31 7.106-25.15 12.222-6.49 5.701-18.13 7.683-26.17 4.074-4.05-1.822-5.74-4.774-6.02-7.279.44 2.398 2.16 5.098 5.96 6.805z" fill="#DBECFD"/><path d="M1737.56 278.414c1.34-1.215 4.47-1.202 6-1.108l-.47.217s-2 .08-3.12.793c-.65.413-1.36 2.425-.56 4.571.48 1.671 1.84 3.48 4.85 4.708 6.59 2.69 17.51.948 23.67-4.992 7.92-7.647 13.78-11.721 20.19-11.96 4.96-.182 9.25 2.81 11.94 5.9-1.97-1.995-4.64-3.741-6.17-4.264-8.12-3.609-19.93 6.915-25.77 12.035-6.51 5.701-17.13 7.82-25.17 4.211-6.2-2.779-6.86-7.691-5.39-10.111z" fill="#DBECFD"/><path d="M1788.27 271.361c.01.953.74 2.695 1.4 4.371 1.39 3.493 6.57 22.661-.71 32.587 1.85 2.11 4.17 1.268 5.78-.634 1.62-1.902 3.35-12.67 2.43-20.8-.92-8.13-3.7-12.988-3.58-14.469.11-1.481 1.02-3.644-1.07-4.322-2.46-.807-4.28 1.742-4.25 3.267z" fill="#DBECFD"/><path d="M1790.28 275.528c-.66-1.676-1.39-3.422-1.4-4.371-.02-1.037.83-2.553 2.14-3.156a2.879 2.879 0 011.93.279c-1.5.488-2.48 2.159-2.47 3.28.02.954.74 2.696 1.4 4.371 1.39 3.494 6.57 22.662-.71 32.583.32.363.65.634.99.833-.89.045-1.78-.31-2.59-1.232 7.28-9.93 2.1-29.098.71-32.587z" fill="#B6D1ED"/><path d="M1834.52 288.805c6.23 20.077 27.55 31.31 47.63 25.077 20.08-6.228 31.3-27.555 25.08-47.632-6.23-20.077-27.56-31.302-47.63-25.078-20.08 6.233-31.3 27.556-25.08 47.633z" fill="#A6C1DC"/><path d="M1855.28 255.318c5.46-5.289 1.56-10.994-8.3-3.347-6.2 4.805-14.33 22.799-8.76 35.207 1.74-19.652 6.04-21.176 17.06-31.86z" fill="#B6D1ED"/><path d="M1866.75 306.315c18.44-5.723 28.75-25.308 23.03-43.74-2.54-8.188-7.81-14.753-14.49-19.044 12.91 1.879 24.26 10.909 28.38 24.204 5.72 18.437-4.59 38.03-23.03 43.749-10.27 3.183-20.87 1.383-29.26-3.994 4.99.727 10.23.416 15.37-1.175z" fill="#95AEC7"/><path d="M1834.04 286.907a35.68 35.68 0 01-.86-4.384c1.15-2.979 2.64-5.772 4.53-8.316-1.28-3.17-2.43-5.794-3.28-7.669.31-1.006.67-1.982 1.05-2.953.73 1.552 2.13 4.593 3.81 8.671a37.182 37.182 0 013.4-3.471c-1.77-7.221-.94-13.126.17-16.978a36.932 36.932 0 013.77-3.604c-.61 1.117-4.27 8.485-2.05 18.991 2.85-2.265 6.13-4.229 9.8-5.896-2.38-9.877 2.65-16.712 6.93-20.556 1.59-.416 3.19-.74 4.79-.94-3.44 2.208-12.22 9.093-9.67 20.632 15.32-6.211 34.26-6.047 47.24-2.168.51.882.99 1.795 1.44 2.731-12.52-4.429-32.32-4.948-48.11 1.56 5.24 15.897 25.8 20.746 50.72 24.359a37.5 37.5 0 01-.59 2.128c-25.46-3.701-46.5-8.764-52.17-25.614-3.2 1.485-6.63 3.48-9.8 6.14 1.6 5.501 11.02 32.667 42.28 42.184-.98.47-1.99.905-3.02 1.304-23.36-8.091-36.51-26.953-41.05-41.883a34.576 34.576 0 00-3.14 3.413c3.64 9.168 8.07 22.249 9.71 34.724-.84-.55-1.64-1.144-2.43-1.76-1.72-11.069-5.52-22.458-8.81-30.885-2 2.899-3.62 6.304-4.66 10.24z" fill="#65809D"/><path d="M1446.49 754.426c0 9.925-33.91 17.973-75.75 17.973-41.83 0-75.74-8.043-75.74-17.973 0-9.925 33.91-17.972 75.75-17.972 41.83 0 75.74 8.047 75.74 17.972z" fill="#DBE7F3"/><path d="M1343.45 709.363s4.11-2.959 9.04-4.333c6.23-1.731 9.58 1.248 3.81 5.572-5.61.711-15.46.61-15.46.61l2.61-1.849zm35.62 1.168c.39-.273 11.64-5.875 21.12-7.354 15.45-2.412 28.45 2.912 13.22 15.472-15.3.009-34.34-8.118-34.34-8.118z" fill="#809DBB"/><path d="M1413.55 704.135c2.79 2.501 1.04 4.766-9.72 8.451-7.14.004-17.08-.034-26.3-2.711-.63.307-1.01.509-1.08.555 0 0 19.04 8.127 34.34 8.119 11.41-8.497 8.87-12.308 2.76-14.414z" fill="#6F8AA7"/><path d="M1415.05 715.103c-13.89-12.955-54.15-12.766-74.06-4.383-6.32.332-5.32 6.467-.79 14.342 4.54 7.875 28.06 34.402 68.62 25.511 6.38-23.65 6.23-35.47 6.23-35.47z" fill="#B6D1ED"/><path d="M1392.69 738.677c-32.62 6.088-46.18-13.388-53.77-20.158 0 0 1 11.316 21.54 23.49 11.51 6.824 22.86 8.333 39.88 9.282-3.38-2.529-7-7.753-7.65-12.614z" fill="#A6BED6"/><path d="M1390.98 750.88c-.75.647-1.88 1.08-2.77 1.348 4.98.332 10.33.122 16.04-.785 3.46-9.19 5.7-39.761 5.7-39.761s-4.93-3.529-10.93-3.109c2.37.723 3.85 2.382.47 2.731-3.4.349-5.71-3.118-5.71-3.118s-1.78 1.879.23 3.786c2.01 1.908.39 4.694-3.18 3.484-3.56-1.215-11.98 1.752-11.98 1.752s10.56-1.324 8.95 2.379c-1.6 3.702-6.45 3.176-6.45 3.176s.72 2.597 3.45 2.135c2.74-.466 4.29 3.811 1.18 5.068-3.1 1.26-5.95-2.849-5.95-2.849s-1.64 2.655 1.68 4.534c3.32 1.874 5.89 5.206 4.49 6.681-1.4 1.475-5.69-2.597-9.41.114 3.01.054 8.41 1.348 7.83 4.109-.58 2.761-5.07 1.047-5.07 1.047s2.5 5.555 8.85 3.559c-1.39 1.996-5.45 1.71-5.39 3.803 1.68-.967 9.38-1.299 7.97-.084z" fill="#9AB7D3"/><path d="M1400.34 751.287c-3.38-2.525-7-7.749-7.65-12.61-3.53.659-6.84 1.017-9.93 1.126 1.27.664 2.11 1.571 1.86 2.748-.58 2.761-5.07 1.046-5.07 1.046s2.5 5.555 8.85 3.559c-1.04 1.509-3.61 1.715-4.79 2.627 1.01.147 2.04.281 3.08.403 2.24-.193 4.57-.092 4.46.462 2.88.253 5.93.458 9.19.639z" fill="#95AEC7"/><path d="M1345.16 711.111s1.92-16.04-7.91-16.111c-.98.857-3.73 16.754.66 25.133 7.98-6.875 7.25-9.022 7.25-9.022zm69.89 3.992c-1.49-1.395-3.3-2.639-5.35-3.736-1.11.181-2.31.471-3.6.904-6.33 2.113-11.54 8.358-13.51 16.241-2.4 9.551.81 18.947 7.34 23.49 2.87-.29 5.83-.757 8.9-1.429 6.37-23.65 6.22-35.47 6.22-35.47z" fill="#B6D1ED"/><path d="M1423.13 736.088c-2.44 9.732-10.12 16.191-17.15 14.426-7.04-1.765-10.76-11.085-8.32-20.817 2.44-9.732 10.12-16.191 17.16-14.426 7.03 1.765 10.76 11.085 8.31 20.817z" fill="#536B86"/><path d="M1414.82 715.271a9.82 9.82 0 00-2.85-.273c5.13 3.256 7.55 11.266 5.46 19.582-2.11 8.425-8.15 14.392-14.3 14.699.88.554 1.83.979 2.85 1.235 7.04 1.765 14.72-4.694 17.16-14.426 2.44-9.732-1.29-19.052-8.32-20.817z" fill="#415770"/><path d="M1345.5 722.515c3.1-1.491 9.04-1.311 16.5.425 7.47 1.735 20.66 5.248 16.19 12.333-4.47 7.089-44.3 29.045-60.36 21.531-16.05-7.513 3.19-22.493 27.67-34.289z" fill="#A6C1DC"/><path d="M1318.12 754.208c15.81 7.395 55.01-14.22 59.41-21.196.37-.575.07-3.748-4.07-5.446-8.94 8.115-41.44 24.759-55.28 18.279-1.13-.529-2.06-1.096-2.84-1.697-4.15 5.168-.07 8.728 2.78 10.06zm33.19-46.719c-1.17 1.13.57 2.882 2.65 3.882 5.33 2.568 25.21 3.547 33.65.244 4.16-1.626 4.44-4.152 4.19-5.652-13.06-1.983-28.34-1.286-40.49 1.526z" fill="#95AEC7"/><path d="M1355.04 706.711c-3.5.668-1.63 2.618.76 3.606 4.75 1.966 22.52 2.66 30.07.079 4.14-1.416 4-3.676 3.66-4.744-11.2-1.416-23.77-.949-34.49 1.059z" fill="#536B86"/><path d="M1337.81 712.401c-2.85.567-14.45 7.438-8.62 10.295 5.78 2.828 18.33-3.227 19.06-6.122.69-2.778-6.67-4.925-10.44-4.173z" fill="#A6C1DC"/><path d="M1347.57 716.086c.03-.13-.25-1.252-1.53-1.58-2.8 3-12.52 6.883-17.38 4.673-.84 1.231.09 2.513.6 2.765 5.54 2.706 17.61-3.08 18.31-5.858z" fill="#95AEC7"/><path d="M1340.95 705.173l-1.77-1.193-1.84 1.067.43-2.387-1.4-1.743 2.03-.278.98-2.147.82 2.21 2 .42-1.51 1.643.26 2.408z" fill="#9AB7D3"/><path opacity=".7" d="M1430.16 737.714c-2.88 11.481-11.94 19.103-20.24 17.019-8.3-2.084-12.7-13.077-9.81-24.557 2.88-11.48 11.94-19.103 20.24-17.023 8.3 2.084 12.69 13.077 9.81 24.561z" fill="#CDEAFC"/><path d="M1421.12 713.381c-.25-.084-.51-.16-.77-.223-8.3-2.08-17.36 5.539-20.24 17.023-1.88 7.48-.67 14.758 2.7 19.494-3.01-4.736-4.03-11.67-2.24-18.796 2.89-11.481 11.95-19.103 20.25-17.019 1.79.45 3.39 1.315 4.79 2.509-1.29-1.337-2.79-2.354-4.49-2.988z" fill="#fff"/><path opacity=".7" d="M1426.11 719.624c.79.32 1.62.332 2.36.219-.81-1.467-1.79-2.748-2.92-3.811l-4.43-2.652s-6.23 1.832-6.05 3.66c.17 1.824 10.91 7.165 5.01 6.669-5.9-.5-4.72 4.437-3.74 6.765.97 2.328 1.32.748 1.32.748s-1.53-3.752 1.46-4.483c2.98-.736 6.76 3.613 8.13.962 1.36-2.652-3.25-8.938-1.14-8.077zm-11.34 26.053c-3.72-2.256-.72-2.466.84-3.029 1.55-.563 1.54-5.795-.18-6.795l.01.525s-.39 5.11-3.69 3.627c-3.31-1.484-8.06-3.19-5.72 1.323 2.34 4.517 7.44 9.741 3.23 8.678-2.46-.622-4.99-.711-6.67-.673 1.82 2.706 4.32 4.644 7.33 5.4 2.67.668 5.41.332 8.01-.811 1.2-1.185 2.32-2.383 2.99-3.311 2.01-2.795-2.43-2.681-6.15-4.934z" fill="#fff"/><path d="M1421 735.567c-.58 2.223-3.61 2.601-4.95 2.265-1.34-.336-2.05-2.114-1.59-3.971.47-1.857 1.93-3.088 3.27-2.752 1.35.336 3.87 2.202 3.27 4.458z" fill="#536B86"/><path d="M1420.42 735.286c-.24.911-1.48 1.067-2.03.928-.55-.138-.84-.865-.65-1.626.19-.761.79-1.265 1.34-1.13.55.138 1.58.903 1.34 1.828z" fill="#6F89A7"/><path opacity=".6" d="M1433.4 729.02a.253.253 0 01-.26-.252c-.21-6.24-2.4-11.762-6.01-15.144a.276.276 0 01-.01-.37c.1-.105.27-.109.37-.013 3.7 3.48 5.95 9.132 6.16 15.51.01.143-.1.265-.25.269zm2.23-5.374a.258.258 0 01-.26-.215c-1.16-6.135-4.16-11.257-8.24-14.051a.261.261 0 01-.07-.362.257.257 0 01.36-.067c4.19 2.874 7.27 8.118 8.46 14.388.02.143-.07.282-.21.307-.01-.004-.03 0-.04 0zm-20.77 34.365c-3.98.105-8.36-1.068-12.48-3.404-.13-.072-.18-.231-.1-.357a.25.25 0 01.35-.097c5.44 3.076 11.29 4.093 16.05 2.786.14-.038.28.042.32.185a.261.261 0 01-.18.323c-1.26.341-2.58.53-3.96.564zm-.2 2.937c-2.88.075-5.97-.404-9.04-1.437a.254.254 0 01-.16-.332c.04-.135.19-.21.33-.164 5.91 1.992 11.85 1.878 16.29-.303a.25.25 0 01.34.122c.07.126.02.286-.11.349-2.25 1.101-4.86 1.689-7.65 1.765z" fill="#fff"/><path d="M1350.7 708.88a.69.69 0 01-.67.705.684.684 0 11-.03-1.369c.38-.013.69.285.7.664zm3.83 3.647a.685.685 0 01-1.37.034.69.69 0 01.67-.706.69.69 0 01.7.672zm7.46 1.723c0 .378-.29.693-.67.702a.693.693 0 01-.71-.669.684.684 0 01.67-.701c.38-.009.7.29.71.668zm9.16.281c0 .379-.29.694-.67.706a.677.677 0 01-.7-.668.69.69 0 01.66-.706c.38-.008.7.29.71.668zm10.01-.176a.69.69 0 01-.66.706.684.684 0 11-.04-1.37c.38-.013.7.286.7.664zm9.27-2.509c0 .378-.29.694-.67.706a.692.692 0 01-.71-.668.685.685 0 01.67-.702c.38-.016.7.282.71.664zm3.09-4.878a.684.684 0 11-.7-.664c.38-.013.69.285.7.664z" fill="#809DBB"/><path d="M1386.96 709.959l.1-4.416c.02-.58-.44-1.063-1.02-1.076a1.05 1.05 0 00-1.08 1.026l-.11 4.429c0 .273.1.521.26.71.26-.076.51-.156.76-.236.4-.138.76-.285 1.09-.437zm-6.17 1.459l-1.13-4.287a1.053 1.053 0 00-1.29-.748c-.55.148-.89.723-.74 1.286l1.07 4.068c.72-.067 1.43-.151 2.1-.244 0-.021 0-.046-.01-.075z" fill="#394E66"/><path opacity=".7" d="M1386.31 710.233c.09-.034.17-.068.26-.105a.53.53 0 01.07-.026c.09-.042.18-.079.28-.126l.01-.004c3.05-1.412 2.91-3.357 2.61-4.324-.9-2.387-4.49-8.131-8.08-8.824-10.25 1.849-12.66 15.203-12.66 15.203.03.008 1.67.038 3.54.034 2.53-.03 5.03-.164 7.32-.421 1.66-.193 3.19-.441 4.52-.764.02-.005.04-.009.05-.013.19-.046.37-.092.55-.139l.05-.012.45-.126.12-.038c.16-.051.32-.101.47-.151l.36-.127a.614.614 0 01.08-.037z" fill="#fff"/><path opacity=".7" d="M1381.77 697.299c-1.47.214-3.53 1.706-3.53 1.706s5.73.592 9.35 4.244c-1.47-3.101-3.39-4.837-5.82-5.95z" fill="#fff"/><path d="M383 844.75c0 9.35-38.949 16.929-87 16.929s-87-7.579-87-16.929c0-9.351 38.949-16.929 87-16.929 48.046-.005 87 7.578 87 16.929z" fill="#DBE7F3"/><path d="M299.217 734.639s9.881-2.696 14.889 2.658c-.715-6.075-21.499-22.638-35.882-6.284 13.502 3.582 20.993 3.626 20.993 3.626z" fill="#99B4D0"/><path d="M343.574 761.244c2.774 1.865 7.457 13.785 1.319 22.201-6.143 8.425-12.597 13.132-10.47 18.077 2.127 4.946 7.934 13.483 3.003 18.735-4.926 5.262-10.659 2.419-10.659 2.419l1.348 15.478s13.828-1.397 16.466-13.628c2.638-12.213-6.551-18.404-3.558-23.237 2.999-4.834 11.945-14.169 13.103-20.848 1.173-6.687-10.552-19.197-10.552-19.197z" fill="#6F8AA7"/><path d="M354.131 780.437c.925-5.272-6.162-14.135-9.194-17.659.55.827 1.085 1.917 1.567 3.202 3.11 4.167 6.469 9.706 5.831 13.434-1.178 6.693-10.114 16.029-13.108 20.857-3.008 4.819 6.187 11.025 3.544 23.237-2.074 9.594-11.01 12.519-14.763 13.332l.112 1.309s13.828-1.396 16.466-13.628c2.638-12.213-6.551-18.404-3.558-23.237 2.998-4.834 11.945-14.169 13.103-20.847z" fill="#B6D1ED"/><path d="M343.574 761.244s.531.594 1.358 1.534c-.467-.706-.944-1.242-1.358-1.534z" fill="#FCC353"/><path d="M302.624 735.837c5.851.822 20.867-.409 36.462 9.408 15.58 9.823 19.664 24.605 13.619 39.324 1.567-13.453-7.895-27.301-30.227-27.029-11.175-11.005-19.854-21.703-19.854-21.703z" fill="#B6D1ED"/><path d="M324.605 842.34c4.254-3.383 4.4-5.738 4.42-12.577-.005-6.863 3.144-67.847-6.26-80.989-9.403-13.127-32.689-23.607-55.936-16.5-23.251 7.087-31.229 17.279-29.321 49.277 1.903 31.989 54.354 71.955 65.953 71.902 6.333-.01 17.245-8.007 21.144-11.113z" fill="#95AEC7"/><path d="M300.813 766.039c6.844 25.34 13.434 58.91 17.358 56.063 6.381-4.624 4.658-54.418 4.663-61.077 0-1.114-.94-6.074-.842-9.622 7.257 16.948 4.555 69.667 4.551 75.936-.01 6.654-.146 8.941-4.293 12.241-3.797 3.018-14.408 10.787-20.556 10.811-11.297.049-62.297-38.813-64.137-69.93-1.173-19.557 1.46-30.718 9.184-38.053 16.447 21.314 46.387 23.665 54.072 23.631z" fill="#88A2BC"/><path d="M269.156 737.487c11.025 1.976 30.962 11.672 33.741 28.075 2.794 16.413 7.851 81.446 2.731 86.917-5.131 5.461-61.68-6.177-67.122-20.828-5.437-14.65-5.164-47.987-3.057-64.079 2.113-16.092 6.041-35.035 33.707-30.085z" fill="#A6C1DC"/><path d="M273.371 787.981c8.348 1.1 23.982-11.399 26.119-20.492 2.658 15.62 7.471 77.499 2.599 82.688-4.887 5.213-58.696-5.875-63.855-19.801-5.17-13.95-4.921-45.676-2.916-60.974 2.224 14.169 13.78 15.371 38.053 18.579z" fill="#B6D1ED"/><path d="M317.874 799.531s.024.01.039.005a.497.497 0 00.506-.506c-.005-1.387-.37-34.111-3.076-41.986-2.487-7.204-18.282-26.678-47.248-25.656a.509.509 0 00-.482.53c-.005.283.243.487.511.482 28.066-.998 43.948 18.234 46.265 24.97 2.667 7.72 3.027 41.319 3.022 41.66.005.273.215.492.463.501z" fill="#B6D1ED"/><path d="M285.175 798.149c6.148 3.743 8.377 11.838 8.927 20.249.569 8.415.764 31.949-5.203 34.884-10.28 5.067-52.656-11.024-55.391-18.686-2.726-7.661-6.513-46.771 2.696-49.307 6.985-1.908 32.115 2.59 48.971 12.86z" fill="#99B4D0"/><path d="M279.29 800.885c4.916 2.472 7.423 7.753 8.143 17.177.711 9.423-.18 34.281-9.428 35.989-8.854 1.626-43.296-10.168-46.606-18.029-4.142-9.88-4.823-40.175.877-45.802 4.984-4.911 36.539 5.388 47.014 10.665z" fill="#B6D1ED"/><path d="M320.599 802.832c.803-2.741-1.236-7.199-2.74-7.126-1.874.092-2.804 6.079-1.801 7.583.706 1.071 4.244.584 4.541-.457zm-30.148 27.233c.812-2.745-1.227-7.199-2.721-7.121-1.879.097-2.814 6.069-1.816 7.578.701 1.066 4.24.575 4.537-.457zm-36.374-68.086c-.404 6.08 3.276 11.293 8.221 11.614 4.931.326 9.268-4.347 9.667-10.436.409-6.084-3.271-11.282-8.211-11.608-4.936-.331-9.268 4.341-9.677 10.43z" fill="#E0ECF9"/><path d="M255.653 762.077c-.287 4.361 2.337 8.089 5.88 8.318 3.534.234 6.634-3.105 6.922-7.466.292-4.357-2.342-8.09-5.875-8.324-3.539-.233-6.649 3.12-6.927 7.472z" fill="#B6D1ED"/><path d="M164.709 719.65c0 6.763-28.174 12.245-62.931 12.245-34.758 0-62.931-5.482-62.931-12.245 0-6.764 28.173-12.246 62.931-12.246 34.757 0 62.931 5.482 62.931 12.246z" fill="#DBE7F3"/><path d="M104.408 709.165c0 .612-.373 1.105-.838 1.105-.461 0-.835-.493-.835-1.105v-11.721c0-.609.374-1.105.835-1.105.461 0 .838.492.838 1.105v11.721zm-8.845-.81H92.69v4.954h2.873v-4.954z" fill="#6F8AA7"/><path d="M113.111 715.358a2.704 2.704 0 01-2.703 2.704H96.736a2.705 2.705 0 01-2.704-2.704v-7.471a2.705 2.705 0 012.704-2.704h13.672a2.704 2.704 0 012.703 2.704v7.471z" fill="#A6C1DC"/><path d="M107.333 711.622a3.763 3.763 0 11-7.528.002 3.763 3.763 0 017.528-.002z" fill="#C8DBEE"/><path d="M105.949 710.436a1.19 1.19 0 11-2.38 0 1.19 1.19 0 012.38 0z" fill="#fff"/><path d="M104.408 679.84c0 .613-.373 1.106-.838 1.106-.461 0-.835-.493-.835-1.106v-11.721c0-.609.374-1.105.835-1.105.461 0 .838.496.838 1.105v11.721z" fill="#A6C1DC"/><path d="M109.911 675.763c0 .877-.711 1.584-1.585 1.584h-9.51a1.584 1.584 0 110-3.168h9.51c.877 0 1.585.711 1.585 1.584z" fill="#95AEC7"/><path d="M106.545 667.971a2.972 2.972 0 11-5.945-.001 2.972 2.972 0 015.945.001zm-31.153 24.136s-13.615 1.013-16.304 24.751c-.226 1.954 0 2.563 0 2.563s.299.778 1.102.841c.806.067 1.383-.404 1.496-1.161.112-.757 2.038-17.619 19.766-21.868.746-1.754-1.645-5.345-6.06-5.126z" fill="#C0DAF5"/><path d="M64.337 718.956a1.982 1.982 0 01-1.982 1.982h-3.96a1.982 1.982 0 01-1.983-1.982 1.98 1.98 0 011.982-1.979h3.961a1.977 1.977 0 011.982 1.979z" fill="#A6C1DC"/><path d="M131.75 692.107s13.612 1.013 16.305 24.751c.225 1.954 0 2.563 0 2.563s-.299.778-1.102.841c-.803.067-1.384-.404-1.496-1.161-.113-.757-2.039-17.619-19.766-21.868-.747-1.754 1.644-5.345 6.059-5.126z" fill="#C0DAF5"/><path d="M142.806 718.956c0 1.095.887 1.982 1.982 1.982h3.961a1.982 1.982 0 100-3.961h-3.961a1.977 1.977 0 00-1.982 1.979z" fill="#A6C1DC"/><path d="M151.41 685.287a6.736 6.736 0 00.257-.419c.074-.134.145-.268.212-.402.003-.007.003-.014.01-.021.585-1.221.792-2.436.792-2.436s-39.383-4.922-43.228-5.545H97.69c-6.58 1.017-43.225 5.545-43.225 5.545s.215 1.274.838 2.524c0 .004.003.004.003.007a8.012 8.012 0 00.212.395c.074.126.151.25.232.369.007.007.01.018.017.025.081.12.17.239.261.352 12.41.134 19.213 7.528 20.614 9.112 7.017 9.179 20.844 8.436 26.924 8.429.021 0 .067-.004.092-.004l.112-.007c6.049-.398 19.759.704 26.73-8.418 1.405-1.584 8.204-8.978 20.615-9.112.098-.12.193-.25.281-.38l.014-.014z" fill="#C0DAF5"/><path d="M55.462 684.523c10.77-.546 57.78-2.081 96.269.014a11.466 11.466 0 01-.187.359 5.409 5.409 0 01-.242.391l-.015.021c-.088.13-.183.257-.281.38-12.415.134-19.213 7.528-20.618 9.112-6.971 9.122-20.681 8.02-26.73 8.418l-.113.007c-.024 0-.067.004-.091.004-6.08.007-19.91.746-26.924-8.429-1.405-1.584-8.253-8.961-20.663-9.091l-.462-.767c.004-.004.064-.405.057-.419z" fill="#A6C1DC"/><path d="M96.323 691.902c0-.179.145-.324.324-.324h13.844a.323.323 0 110 .648H96.647a.323.323 0 01-.324-.324zm0 2.771c0-.179.145-.324.324-.324h13.844c.18 0 .324.145.324.324a.324.324 0 01-.324.328H96.647a.324.324 0 01-.324-.328zm0 2.775c0-.18.145-.328.324-.328h13.844c.18 0 .324.145.324.328a.323.323 0 01-.324.324H96.647a.322.322 0 01-.324-.324z" fill="#6F8AA7"/><path opacity=".5" d="M28.003 671.425c0 1.211 11.474 2.194 25.624 2.194 14.154 0 25.625-.983 25.625-2.194 0-1.211-11.474-2.193-25.625-2.193-14.15 0-25.624.982-25.624 2.193z" fill="#D7EDFC"/><path d="M55.166 680.463c0 .613-.374 1.106-.838 1.106-.462 0-.835-.497-.835-1.106v-11.721c0-.609.373-1.105.835-1.105.46 0 .837.496.837 1.105v11.721z" fill="#C0DAF5"/><path d="M56.55 667.176c0 .637-.961 1.155-2.148 1.155-1.187 0-2.144-.518-2.144-1.155 0-.638.961-1.155 2.144-1.155 1.187 0 2.148.517 2.148 1.155z" fill="#A6C1DC"/><path d="M58.434 690.054a3.896 3.896 0 01-3.898 3.897 3.899 3.899 0 01-3.897-3.897v-9.798a3.9 3.9 0 013.897-3.898 3.9 3.9 0 013.898 3.898v9.798z" fill="#95AEC7"/><path opacity=".5" d="M126.744 671.425c0 1.211 11.471 2.194 25.625 2.194 14.153 0 25.624-.983 25.624-2.194 0-1.211-11.474-2.193-25.624-2.193-14.151 0-25.625.982-25.625 2.193z" fill="#D7EDFC"/><path d="M153.435 680.463c0 .613-.377 1.106-.838 1.106-.461 0-.834-.497-.834-1.106v-11.721c0-.609.373-1.105.834-1.105.461 0 .838.496.838 1.105v11.721z" fill="#C0DAF5"/><path d="M154.819 667.176c0 .637-.961 1.155-2.148 1.155-1.186 0-2.148-.518-2.148-1.155 0-.638.962-1.155 2.148-1.155 1.187 0 2.148.517 2.148 1.155z" fill="#A6C1DC"/><path d="M156.702 690.054a3.896 3.896 0 01-3.897 3.897 3.9 3.9 0 01-3.898-3.897v-9.798a3.9 3.9 0 013.898-3.898 3.899 3.899 0 013.897 3.898v9.798z" fill="#95AEC7"/><defs><linearGradient id="paint0_linear" x1="958.99" y1="643.993" x2="1559" y2="64" gradientUnits="userSpaceOnUse"><stop stop-color="#D9E6F2"/><stop offset="1" stop-color="#E6EFF8"/></linearGradient></defs></svg>