<svg width="16" height="16" fill="none" xmlns="http://www.w3.org/2000/svg"><path d="M11.669 0H4.33A4.336 4.336 0 000 4.331v7.338A4.336 4.336 0 004.331 16h7.338A4.336 4.336 0 0016 11.67V4.33A4.336 4.336 0 0011.669 0zM8 12.375A4.38 4.38 0 013.625 8 4.38 4.38 0 018 3.625 4.38 4.38 0 0112.375 8 4.38 4.38 0 018 12.375zm4.48-7.718a1.294 1.294 0 010-2.586 1.294 1.294 0 01-.001 2.586z" fill="#2B3C67"/><path d="M8 4.563A3.44 3.44 0 004.563 8 3.44 3.44 0 008 11.437 3.44 3.44 0 0011.437 8 3.44 3.44 0 008 4.563zm4.48-1.553a.355.355 0 100 .71.355.355 0 000-.71z" fill="#2B3C67"/></svg>